<mxfile host="app.diagrams.net" modified="2023-03-02T05:33:40.392Z" agent="5.0 (Windows NT 10.0; Win64; x64) AppleWebKit/537.36 (KHTML, like Gecko) Chrome/110.0.0.0 Safari/537.36" etag="u7J2lYxifiA1OeeIlvtX" version="20.8.23" type="github">
  <diagram name="Page-1" id="5PYsFLLrcf5LegHmqbu3">
    <mxGraphModel dx="6480" dy="2520" grid="1" gridSize="10" guides="1" tooltips="1" connect="1" arrows="1" fold="1" page="1" pageScale="1" pageWidth="850" pageHeight="1100" math="0" shadow="0">
      <root>
        <mxCell id="0" />
        <mxCell id="1" parent="0" />
        <mxCell id="UVRq8ia7U5ipdbFmCf5v-1" value="&lt;&lt;Abstract&gt;&gt;&#xa;Pen" style="swimlane;fontStyle=1;align=center;verticalAlign=top;childLayout=stackLayout;horizontal=1;startSize=40;horizontalStack=0;resizeParent=1;resizeParentMax=0;resizeLast=0;collapsible=1;marginBottom=0;fontFamily=Verdana;fontSize=14;" parent="1" vertex="1">
          <mxGeometry x="520" y="40" width="460" height="404" as="geometry" />
        </mxCell>
        <mxCell id="UVRq8ia7U5ipdbFmCf5v-2" value="- name : String" style="text;strokeColor=none;fillColor=none;align=left;verticalAlign=top;spacingLeft=4;spacingRight=4;overflow=hidden;rotatable=0;points=[[0,0.5],[1,0.5]];portConstraint=eastwest;fontFamily=Verdana;fontSize=14;" parent="UVRq8ia7U5ipdbFmCf5v-1" vertex="1">
          <mxGeometry y="40" width="460" height="24" as="geometry" />
        </mxCell>
        <mxCell id="UVRq8ia7U5ipdbFmCf5v-6" value="- brand : String" style="text;strokeColor=none;fillColor=none;align=left;verticalAlign=top;spacingLeft=4;spacingRight=4;overflow=hidden;rotatable=0;points=[[0,0.5],[1,0.5]];portConstraint=eastwest;fontFamily=Verdana;fontSize=14;" parent="UVRq8ia7U5ipdbFmCf5v-1" vertex="1">
          <mxGeometry y="64" width="460" height="24" as="geometry" />
        </mxCell>
        <mxCell id="UVRq8ia7U5ipdbFmCf5v-9" value="- price : Integer" style="text;strokeColor=none;fillColor=none;align=left;verticalAlign=top;spacingLeft=4;spacingRight=4;overflow=hidden;rotatable=0;points=[[0,0.5],[1,0.5]];portConstraint=eastwest;fontFamily=Verdana;fontSize=14;" parent="UVRq8ia7U5ipdbFmCf5v-1" vertex="1">
          <mxGeometry y="88" width="460" height="24" as="geometry" />
        </mxCell>
        <mxCell id="UVRq8ia7U5ipdbFmCf5v-7" value="+ refill : Refill" style="text;strokeColor=none;fillColor=none;align=left;verticalAlign=top;spacingLeft=4;spacingRight=4;overflow=hidden;rotatable=0;points=[[0,0.5],[1,0.5]];portConstraint=eastwest;fontFamily=Verdana;fontSize=14;" parent="UVRq8ia7U5ipdbFmCf5v-1" vertex="1">
          <mxGeometry y="112" width="460" height="24" as="geometry" />
        </mxCell>
        <mxCell id="UVRq8ia7U5ipdbFmCf5v-3" value="" style="line;strokeWidth=1;fillColor=none;align=left;verticalAlign=middle;spacingTop=-1;spacingLeft=3;spacingRight=3;rotatable=0;labelPosition=right;points=[];portConstraint=eastwest;strokeColor=inherit;fontFamily=Verdana;fontSize=14;" parent="UVRq8ia7U5ipdbFmCf5v-1" vertex="1">
          <mxGeometry y="136" width="460" height="8" as="geometry" />
        </mxCell>
        <mxCell id="Yz0xnHHeIeZ-wLIu7A6q-3" value="+ Pen(name:String, brand:String, price : Integer, refill : Refill)" style="text;strokeColor=none;fillColor=none;align=left;verticalAlign=top;spacingLeft=4;spacingRight=4;overflow=hidden;rotatable=0;points=[[0,0.5],[1,0.5]];portConstraint=eastwest;fontFamily=Verdana;fontSize=14;" vertex="1" parent="UVRq8ia7U5ipdbFmCf5v-1">
          <mxGeometry y="144" width="460" height="26" as="geometry" />
        </mxCell>
        <mxCell id="Yz0xnHHeIeZ-wLIu7A6q-1" value="+ write(String toWrite): void" style="text;strokeColor=none;fillColor=none;align=left;verticalAlign=top;spacingLeft=4;spacingRight=4;overflow=hidden;rotatable=0;points=[[0,0.5],[1,0.5]];portConstraint=eastwest;fontFamily=Verdana;fontSize=14;" vertex="1" parent="UVRq8ia7U5ipdbFmCf5v-1">
          <mxGeometry y="170" width="460" height="26" as="geometry" />
        </mxCell>
        <mxCell id="Yz0xnHHeIeZ-wLIu7A6q-2" value="+ canWrite(String toWrite): boolean" style="text;strokeColor=none;fillColor=none;align=left;verticalAlign=top;spacingLeft=4;spacingRight=4;overflow=hidden;rotatable=0;points=[[0,0.5],[1,0.5]];portConstraint=eastwest;fontFamily=Verdana;fontSize=14;" vertex="1" parent="UVRq8ia7U5ipdbFmCf5v-1">
          <mxGeometry y="196" width="460" height="26" as="geometry" />
        </mxCell>
        <mxCell id="Yz0xnHHeIeZ-wLIu7A6q-7" value="+ getName() : String" style="text;strokeColor=none;fillColor=none;align=left;verticalAlign=top;spacingLeft=4;spacingRight=4;overflow=hidden;rotatable=0;points=[[0,0.5],[1,0.5]];portConstraint=eastwest;fontFamily=Verdana;fontSize=14;" vertex="1" parent="UVRq8ia7U5ipdbFmCf5v-1">
          <mxGeometry y="222" width="460" height="26" as="geometry" />
        </mxCell>
        <mxCell id="UVRq8ia7U5ipdbFmCf5v-10" value="+ setName(name : String) : void" style="text;strokeColor=none;fillColor=none;align=left;verticalAlign=top;spacingLeft=4;spacingRight=4;overflow=hidden;rotatable=0;points=[[0,0.5],[1,0.5]];portConstraint=eastwest;fontFamily=Verdana;fontSize=14;" parent="UVRq8ia7U5ipdbFmCf5v-1" vertex="1">
          <mxGeometry y="248" width="460" height="26" as="geometry" />
        </mxCell>
        <mxCell id="Yz0xnHHeIeZ-wLIu7A6q-8" value="+ getBrand() : String" style="text;strokeColor=none;fillColor=none;align=left;verticalAlign=top;spacingLeft=4;spacingRight=4;overflow=hidden;rotatable=0;points=[[0,0.5],[1,0.5]];portConstraint=eastwest;fontFamily=Verdana;fontSize=14;" vertex="1" parent="UVRq8ia7U5ipdbFmCf5v-1">
          <mxGeometry y="274" width="460" height="26" as="geometry" />
        </mxCell>
        <mxCell id="Yz0xnHHeIeZ-wLIu7A6q-10" value="+ setBrand(brand : String) : void" style="text;strokeColor=none;fillColor=none;align=left;verticalAlign=top;spacingLeft=4;spacingRight=4;overflow=hidden;rotatable=0;points=[[0,0.5],[1,0.5]];portConstraint=eastwest;fontFamily=Verdana;fontSize=14;" vertex="1" parent="UVRq8ia7U5ipdbFmCf5v-1">
          <mxGeometry y="300" width="460" height="26" as="geometry" />
        </mxCell>
        <mxCell id="Yz0xnHHeIeZ-wLIu7A6q-11" value="+ setPrice(price : Integer) : void" style="text;strokeColor=none;fillColor=none;align=left;verticalAlign=top;spacingLeft=4;spacingRight=4;overflow=hidden;rotatable=0;points=[[0,0.5],[1,0.5]];portConstraint=eastwest;fontFamily=Verdana;fontSize=14;" vertex="1" parent="UVRq8ia7U5ipdbFmCf5v-1">
          <mxGeometry y="326" width="460" height="26" as="geometry" />
        </mxCell>
        <mxCell id="Yz0xnHHeIeZ-wLIu7A6q-9" value="+ getPrice() : Integer" style="text;strokeColor=none;fillColor=none;align=left;verticalAlign=top;spacingLeft=4;spacingRight=4;overflow=hidden;rotatable=0;points=[[0,0.5],[1,0.5]];portConstraint=eastwest;fontFamily=Verdana;fontSize=14;" vertex="1" parent="UVRq8ia7U5ipdbFmCf5v-1">
          <mxGeometry y="352" width="460" height="26" as="geometry" />
        </mxCell>
        <mxCell id="UVRq8ia7U5ipdbFmCf5v-11" value="+ toString(): String" style="text;strokeColor=none;fillColor=none;align=left;verticalAlign=top;spacingLeft=4;spacingRight=4;overflow=hidden;rotatable=0;points=[[0,0.5],[1,0.5]];portConstraint=eastwest;fontFamily=Verdana;fontSize=14;" parent="UVRq8ia7U5ipdbFmCf5v-1" vertex="1">
          <mxGeometry y="378" width="460" height="26" as="geometry" />
        </mxCell>
        <mxCell id="UVRq8ia7U5ipdbFmCf5v-12" value="BallPen" style="swimlane;fontStyle=1;align=center;verticalAlign=top;childLayout=stackLayout;horizontal=1;startSize=26;horizontalStack=0;resizeParent=1;resizeParentMax=0;resizeLast=0;collapsible=1;marginBottom=0;fontFamily=Verdana;" parent="1" vertex="1">
          <mxGeometry x="-200" y="640" width="160" height="86" as="geometry" />
        </mxCell>
        <mxCell id="UVRq8ia7U5ipdbFmCf5v-13" value="..." style="text;strokeColor=none;fillColor=none;align=left;verticalAlign=top;spacingLeft=4;spacingRight=4;overflow=hidden;rotatable=0;points=[[0,0.5],[1,0.5]];portConstraint=eastwest;fontFamily=Verdana;" parent="UVRq8ia7U5ipdbFmCf5v-12" vertex="1">
          <mxGeometry y="26" width="160" height="26" as="geometry" />
        </mxCell>
        <mxCell id="UVRq8ia7U5ipdbFmCf5v-14" value="" style="line;strokeWidth=1;fillColor=none;align=left;verticalAlign=middle;spacingTop=-1;spacingLeft=3;spacingRight=3;rotatable=0;labelPosition=right;points=[];portConstraint=eastwest;strokeColor=inherit;fontFamily=Verdana;" parent="UVRq8ia7U5ipdbFmCf5v-12" vertex="1">
          <mxGeometry y="52" width="160" height="8" as="geometry" />
        </mxCell>
        <mxCell id="UVRq8ia7U5ipdbFmCf5v-15" value="+ doRefill(): void {...}" style="text;strokeColor=none;fillColor=none;align=left;verticalAlign=top;spacingLeft=4;spacingRight=4;overflow=hidden;rotatable=0;points=[[0,0.5],[1,0.5]];portConstraint=eastwest;fontFamily=Verdana;" parent="UVRq8ia7U5ipdbFmCf5v-12" vertex="1">
          <mxGeometry y="60" width="160" height="26" as="geometry" />
        </mxCell>
        <mxCell id="UVRq8ia7U5ipdbFmCf5v-16" value="Extends" style="endArrow=block;endSize=16;endFill=0;html=1;rounded=0;exitX=0.5;exitY=0;exitDx=0;exitDy=0;fontFamily=Verdana;fontSize=14;" parent="1" source="UVRq8ia7U5ipdbFmCf5v-12" target="UVRq8ia7U5ipdbFmCf5v-1" edge="1">
          <mxGeometry width="160" relative="1" as="geometry">
            <mxPoint x="90" y="570" as="sourcePoint" />
            <mxPoint x="250" y="570" as="targetPoint" />
          </mxGeometry>
        </mxCell>
        <mxCell id="UVRq8ia7U5ipdbFmCf5v-17" value="FountainPen" style="swimlane;fontStyle=1;align=center;verticalAlign=top;childLayout=stackLayout;horizontal=1;startSize=26;horizontalStack=0;resizeParent=1;resizeParentMax=0;resizeLast=0;collapsible=1;marginBottom=0;fontFamily=Verdana;fontSize=14;" parent="1" vertex="1">
          <mxGeometry x="-20" y="640" width="160" height="86" as="geometry" />
        </mxCell>
        <mxCell id="UVRq8ia7U5ipdbFmCf5v-18" value="..." style="text;strokeColor=none;fillColor=none;align=left;verticalAlign=top;spacingLeft=4;spacingRight=4;overflow=hidden;rotatable=0;points=[[0,0.5],[1,0.5]];portConstraint=eastwest;fontFamily=Verdana;fontSize=14;" parent="UVRq8ia7U5ipdbFmCf5v-17" vertex="1">
          <mxGeometry y="26" width="160" height="26" as="geometry" />
        </mxCell>
        <mxCell id="UVRq8ia7U5ipdbFmCf5v-19" value="" style="line;strokeWidth=1;fillColor=none;align=left;verticalAlign=middle;spacingTop=-1;spacingLeft=3;spacingRight=3;rotatable=0;labelPosition=right;points=[];portConstraint=eastwest;strokeColor=inherit;fontFamily=Verdana;fontSize=14;" parent="UVRq8ia7U5ipdbFmCf5v-17" vertex="1">
          <mxGeometry y="52" width="160" height="8" as="geometry" />
        </mxCell>
        <mxCell id="UVRq8ia7U5ipdbFmCf5v-20" value="+ doRefill(): void {...}" style="text;strokeColor=none;fillColor=none;align=left;verticalAlign=top;spacingLeft=4;spacingRight=4;overflow=hidden;rotatable=0;points=[[0,0.5],[1,0.5]];portConstraint=eastwest;fontFamily=Verdana;fontSize=14;" parent="UVRq8ia7U5ipdbFmCf5v-17" vertex="1">
          <mxGeometry y="60" width="160" height="26" as="geometry" />
        </mxCell>
        <mxCell id="UVRq8ia7U5ipdbFmCf5v-21" value="GelPen" style="swimlane;fontStyle=1;align=center;verticalAlign=top;childLayout=stackLayout;horizontal=1;startSize=26;horizontalStack=0;resizeParent=1;resizeParentMax=0;resizeLast=0;collapsible=1;marginBottom=0;fontFamily=Verdana;fontSize=14;" parent="1" vertex="1">
          <mxGeometry x="160" y="640" width="160" height="86" as="geometry" />
        </mxCell>
        <mxCell id="UVRq8ia7U5ipdbFmCf5v-22" value="..." style="text;strokeColor=none;fillColor=none;align=left;verticalAlign=top;spacingLeft=4;spacingRight=4;overflow=hidden;rotatable=0;points=[[0,0.5],[1,0.5]];portConstraint=eastwest;fontFamily=Verdana;fontSize=14;" parent="UVRq8ia7U5ipdbFmCf5v-21" vertex="1">
          <mxGeometry y="26" width="160" height="26" as="geometry" />
        </mxCell>
        <mxCell id="UVRq8ia7U5ipdbFmCf5v-23" value="" style="line;strokeWidth=1;fillColor=none;align=left;verticalAlign=middle;spacingTop=-1;spacingLeft=3;spacingRight=3;rotatable=0;labelPosition=right;points=[];portConstraint=eastwest;strokeColor=inherit;fontFamily=Verdana;fontSize=14;" parent="UVRq8ia7U5ipdbFmCf5v-21" vertex="1">
          <mxGeometry y="52" width="160" height="8" as="geometry" />
        </mxCell>
        <mxCell id="UVRq8ia7U5ipdbFmCf5v-24" value="+ doRefill(): void {...}" style="text;strokeColor=none;fillColor=none;align=left;verticalAlign=top;spacingLeft=4;spacingRight=4;overflow=hidden;rotatable=0;points=[[0,0.5],[1,0.5]];portConstraint=eastwest;fontFamily=Verdana;fontSize=14;" parent="UVRq8ia7U5ipdbFmCf5v-21" vertex="1">
          <mxGeometry y="60" width="160" height="26" as="geometry" />
        </mxCell>
        <mxCell id="UVRq8ia7U5ipdbFmCf5v-25" value="UseNThrowPen" style="swimlane;fontStyle=1;align=center;verticalAlign=top;childLayout=stackLayout;horizontal=1;startSize=26;horizontalStack=0;resizeParent=1;resizeParentMax=0;resizeLast=0;collapsible=1;marginBottom=0;fontFamily=Verdana;fontSize=14;" parent="1" vertex="1">
          <mxGeometry x="360" y="640" width="160" height="86" as="geometry" />
        </mxCell>
        <mxCell id="UVRq8ia7U5ipdbFmCf5v-26" value="..." style="text;strokeColor=none;fillColor=none;align=left;verticalAlign=top;spacingLeft=4;spacingRight=4;overflow=hidden;rotatable=0;points=[[0,0.5],[1,0.5]];portConstraint=eastwest;fontFamily=Verdana;fontSize=14;" parent="UVRq8ia7U5ipdbFmCf5v-25" vertex="1">
          <mxGeometry y="26" width="160" height="26" as="geometry" />
        </mxCell>
        <mxCell id="UVRq8ia7U5ipdbFmCf5v-27" value="" style="line;strokeWidth=1;fillColor=none;align=left;verticalAlign=middle;spacingTop=-1;spacingLeft=3;spacingRight=3;rotatable=0;labelPosition=right;points=[];portConstraint=eastwest;strokeColor=inherit;fontFamily=Verdana;fontSize=14;" parent="UVRq8ia7U5ipdbFmCf5v-25" vertex="1">
          <mxGeometry y="52" width="160" height="8" as="geometry" />
        </mxCell>
        <mxCell id="UVRq8ia7U5ipdbFmCf5v-28" value="+ doRefill(): void {...}" style="text;strokeColor=none;fillColor=none;align=left;verticalAlign=top;spacingLeft=4;spacingRight=4;overflow=hidden;rotatable=0;points=[[0,0.5],[1,0.5]];portConstraint=eastwest;fontFamily=Verdana;fontSize=14;" parent="UVRq8ia7U5ipdbFmCf5v-25" vertex="1">
          <mxGeometry y="60" width="160" height="26" as="geometry" />
        </mxCell>
        <mxCell id="UVRq8ia7U5ipdbFmCf5v-29" value="Extends" style="endArrow=block;endSize=16;endFill=0;html=1;rounded=0;exitX=0.5;exitY=0;exitDx=0;exitDy=0;fontFamily=Verdana;fontSize=14;" parent="1" source="UVRq8ia7U5ipdbFmCf5v-17" target="UVRq8ia7U5ipdbFmCf5v-1" edge="1">
          <mxGeometry width="160" relative="1" as="geometry">
            <mxPoint x="240" y="430" as="sourcePoint" />
            <mxPoint x="720" y="290" as="targetPoint" />
          </mxGeometry>
        </mxCell>
        <mxCell id="UVRq8ia7U5ipdbFmCf5v-30" value="Extends" style="endArrow=block;endSize=16;endFill=0;html=1;rounded=0;fontFamily=Verdana;exitX=0.5;exitY=0;exitDx=0;exitDy=0;fontSize=14;" parent="1" target="UVRq8ia7U5ipdbFmCf5v-1" edge="1" source="UVRq8ia7U5ipdbFmCf5v-21">
          <mxGeometry width="160" relative="1" as="geometry">
            <mxPoint x="560" y="410" as="sourcePoint" />
            <mxPoint x="400" y="260" as="targetPoint" />
          </mxGeometry>
        </mxCell>
        <mxCell id="UVRq8ia7U5ipdbFmCf5v-31" value="Extends" style="endArrow=block;endSize=16;endFill=0;html=1;rounded=0;fontFamily=Verdana;exitX=0.5;exitY=0;exitDx=0;exitDy=0;fontSize=14;" parent="1" target="UVRq8ia7U5ipdbFmCf5v-1" edge="1" source="UVRq8ia7U5ipdbFmCf5v-25">
          <mxGeometry width="160" relative="1" as="geometry">
            <mxPoint x="740" y="410" as="sourcePoint" />
            <mxPoint x="731" y="262" as="targetPoint" />
          </mxGeometry>
        </mxCell>
        <mxCell id="UVRq8ia7U5ipdbFmCf5v-34" value="&lt;p style=&quot;margin: 4px 0px 0px; text-align: center; font-size: 14px;&quot;&gt;&lt;i style=&quot;font-size: 14px;&quot;&gt;&lt;b style=&quot;font-size: 14px;&quot;&gt;&amp;lt;&amp;lt;Interface&amp;gt;&amp;gt;&lt;/b&gt;&lt;/i&gt;&lt;br style=&quot;font-size: 14px;&quot;&gt;&lt;b style=&quot;font-size: 14px;&quot;&gt;Refillable&lt;/b&gt;&lt;/p&gt;&lt;hr style=&quot;font-size: 14px;&quot;&gt;&lt;p style=&quot;margin: 0px 0px 0px 4px; font-size: 14px;&quot;&gt;+ doRefill() : void&lt;br style=&quot;font-size: 14px;&quot;&gt;&lt;br style=&quot;font-size: 14px;&quot;&gt;&lt;/p&gt;" style="verticalAlign=top;align=left;overflow=fill;fontSize=14;fontFamily=Verdana;html=1;" parent="1" vertex="1">
          <mxGeometry x="-30" y="40" width="190" height="70" as="geometry" />
        </mxCell>
        <mxCell id="UVRq8ia7U5ipdbFmCf5v-35" value="" style="endArrow=block;dashed=1;endFill=0;endSize=12;html=1;rounded=0;fontFamily=Verdana;fontSize=14;" parent="1" source="UVRq8ia7U5ipdbFmCf5v-12" target="UVRq8ia7U5ipdbFmCf5v-34" edge="1">
          <mxGeometry width="160" relative="1" as="geometry">
            <mxPoint x="340" y="390" as="sourcePoint" />
            <mxPoint x="500" y="390" as="targetPoint" />
          </mxGeometry>
        </mxCell>
        <mxCell id="UVRq8ia7U5ipdbFmCf5v-37" value="" style="endArrow=block;dashed=1;endFill=0;endSize=12;html=1;rounded=0;fontFamily=Verdana;fontSize=14;" parent="1" target="UVRq8ia7U5ipdbFmCf5v-34" edge="1" source="UVRq8ia7U5ipdbFmCf5v-17">
          <mxGeometry width="160" relative="1" as="geometry">
            <mxPoint x="400" y="410" as="sourcePoint" />
            <mxPoint x="500" y="390" as="targetPoint" />
          </mxGeometry>
        </mxCell>
        <mxCell id="UVRq8ia7U5ipdbFmCf5v-38" value="" style="endArrow=block;dashed=1;endFill=0;endSize=12;html=1;rounded=0;exitX=0.45;exitY=0.023;exitDx=0;exitDy=0;exitPerimeter=0;fontFamily=Verdana;fontSize=14;" parent="1" source="UVRq8ia7U5ipdbFmCf5v-21" target="UVRq8ia7U5ipdbFmCf5v-34" edge="1">
          <mxGeometry width="160" relative="1" as="geometry">
            <mxPoint x="340" y="390" as="sourcePoint" />
            <mxPoint x="190" y="110" as="targetPoint" />
          </mxGeometry>
        </mxCell>
        <mxCell id="UVRq8ia7U5ipdbFmCf5v-41" value="&lt;&lt;Abstract&gt;&gt;&#xa;Refill" style="swimlane;fontStyle=1;align=center;verticalAlign=top;childLayout=stackLayout;horizontal=1;startSize=40;horizontalStack=0;resizeParent=1;resizeParentMax=0;resizeLast=0;collapsible=1;marginBottom=0;fontFamily=Verdana;fontSize=14;" parent="1" vertex="1">
          <mxGeometry x="-770" y="40" width="370" height="252" as="geometry" />
        </mxCell>
        <mxCell id="UVRq8ia7U5ipdbFmCf5v-42" value="- name : String&#xa;" style="text;strokeColor=none;fillColor=none;align=left;verticalAlign=top;spacingLeft=4;spacingRight=4;overflow=hidden;rotatable=0;points=[[0,0.5],[1,0.5]];portConstraint=eastwest;fontFamily=Verdana;fontSize=14;" parent="UVRq8ia7U5ipdbFmCf5v-41" vertex="1">
          <mxGeometry y="40" width="370" height="24" as="geometry" />
        </mxCell>
        <mxCell id="Yz0xnHHeIeZ-wLIu7A6q-12" value="- capacity : Integer" style="text;strokeColor=none;fillColor=none;align=left;verticalAlign=top;spacingLeft=4;spacingRight=4;overflow=hidden;rotatable=0;points=[[0,0.5],[1,0.5]];portConstraint=eastwest;fontFamily=Verdana;fontSize=14;" vertex="1" parent="UVRq8ia7U5ipdbFmCf5v-41">
          <mxGeometry y="64" width="370" height="24" as="geometry" />
        </mxCell>
        <mxCell id="UVRq8ia7U5ipdbFmCf5v-46" value="" style="line;strokeWidth=1;fillColor=none;align=left;verticalAlign=middle;spacingTop=-1;spacingLeft=3;spacingRight=3;rotatable=0;labelPosition=right;points=[];portConstraint=eastwest;strokeColor=inherit;fontFamily=Verdana;fontSize=14;" parent="UVRq8ia7U5ipdbFmCf5v-41" vertex="1">
          <mxGeometry y="88" width="370" height="8" as="geometry" />
        </mxCell>
        <mxCell id="UVRq8ia7U5ipdbFmCf5v-47" value="+ Refill(name : String, capacity : Integer) : String " style="text;strokeColor=none;fillColor=none;align=left;verticalAlign=top;spacingLeft=4;spacingRight=4;overflow=hidden;rotatable=0;points=[[0,0.5],[1,0.5]];portConstraint=eastwest;fontFamily=Verdana;fontSize=14;" parent="UVRq8ia7U5ipdbFmCf5v-41" vertex="1">
          <mxGeometry y="96" width="370" height="26" as="geometry" />
        </mxCell>
        <mxCell id="Yz0xnHHeIeZ-wLIu7A6q-16" value="+ getName() : String " style="text;strokeColor=none;fillColor=none;align=left;verticalAlign=top;spacingLeft=4;spacingRight=4;overflow=hidden;rotatable=0;points=[[0,0.5],[1,0.5]];portConstraint=eastwest;fontFamily=Verdana;fontSize=14;" vertex="1" parent="UVRq8ia7U5ipdbFmCf5v-41">
          <mxGeometry y="122" width="370" height="26" as="geometry" />
        </mxCell>
        <mxCell id="Yz0xnHHeIeZ-wLIu7A6q-13" value="+ setName(name : String) : String " style="text;strokeColor=none;fillColor=none;align=left;verticalAlign=top;spacingLeft=4;spacingRight=4;overflow=hidden;rotatable=0;points=[[0,0.5],[1,0.5]];portConstraint=eastwest;fontFamily=Verdana;fontSize=14;" vertex="1" parent="UVRq8ia7U5ipdbFmCf5v-41">
          <mxGeometry y="148" width="370" height="26" as="geometry" />
        </mxCell>
        <mxCell id="Yz0xnHHeIeZ-wLIu7A6q-14" value="+ getCapacity() : Integer " style="text;strokeColor=none;fillColor=none;align=left;verticalAlign=top;spacingLeft=4;spacingRight=4;overflow=hidden;rotatable=0;points=[[0,0.5],[1,0.5]];portConstraint=eastwest;fontFamily=Verdana;fontSize=14;" vertex="1" parent="UVRq8ia7U5ipdbFmCf5v-41">
          <mxGeometry y="174" width="370" height="26" as="geometry" />
        </mxCell>
        <mxCell id="Yz0xnHHeIeZ-wLIu7A6q-15" value="+ setCapacity(capacity : Integer) : void " style="text;strokeColor=none;fillColor=none;align=left;verticalAlign=top;spacingLeft=4;spacingRight=4;overflow=hidden;rotatable=0;points=[[0,0.5],[1,0.5]];portConstraint=eastwest;fontFamily=Verdana;fontSize=14;" vertex="1" parent="UVRq8ia7U5ipdbFmCf5v-41">
          <mxGeometry y="200" width="370" height="26" as="geometry" />
        </mxCell>
        <mxCell id="UVRq8ia7U5ipdbFmCf5v-48" value="+ toString(): String" style="text;strokeColor=none;fillColor=none;align=left;verticalAlign=top;spacingLeft=4;spacingRight=4;overflow=hidden;rotatable=0;points=[[0,0.5],[1,0.5]];portConstraint=eastwest;fontFamily=Verdana;fontSize=14;" parent="UVRq8ia7U5ipdbFmCf5v-41" vertex="1">
          <mxGeometry y="226" width="370" height="26" as="geometry" />
        </mxCell>
        <mxCell id="UVRq8ia7U5ipdbFmCf5v-49" value="BallRefill" style="swimlane;fontStyle=1;align=center;verticalAlign=top;childLayout=stackLayout;horizontal=1;startSize=26;horizontalStack=0;resizeParent=1;resizeParentMax=0;resizeLast=0;collapsible=1;marginBottom=0;fontFamily=Verdana;fontSize=14;" parent="1" vertex="1">
          <mxGeometry x="-1010" y="480" width="160" height="86" as="geometry" />
        </mxCell>
        <mxCell id="UVRq8ia7U5ipdbFmCf5v-50" value="..." style="text;strokeColor=none;fillColor=none;align=left;verticalAlign=top;spacingLeft=4;spacingRight=4;overflow=hidden;rotatable=0;points=[[0,0.5],[1,0.5]];portConstraint=eastwest;fontFamily=Verdana;fontSize=14;" parent="UVRq8ia7U5ipdbFmCf5v-49" vertex="1">
          <mxGeometry y="26" width="160" height="26" as="geometry" />
        </mxCell>
        <mxCell id="UVRq8ia7U5ipdbFmCf5v-51" value="" style="line;strokeWidth=1;fillColor=none;align=left;verticalAlign=middle;spacingTop=-1;spacingLeft=3;spacingRight=3;rotatable=0;labelPosition=right;points=[];portConstraint=eastwest;strokeColor=inherit;fontFamily=Verdana;fontSize=14;" parent="UVRq8ia7U5ipdbFmCf5v-49" vertex="1">
          <mxGeometry y="52" width="160" height="8" as="geometry" />
        </mxCell>
        <mxCell id="UVRq8ia7U5ipdbFmCf5v-52" value="+ doRefill(): void" style="text;strokeColor=none;fillColor=none;align=left;verticalAlign=top;spacingLeft=4;spacingRight=4;overflow=hidden;rotatable=0;points=[[0,0.5],[1,0.5]];portConstraint=eastwest;fontFamily=Verdana;fontSize=14;" parent="UVRq8ia7U5ipdbFmCf5v-49" vertex="1">
          <mxGeometry y="60" width="160" height="26" as="geometry" />
        </mxCell>
        <mxCell id="UVRq8ia7U5ipdbFmCf5v-53" value="Extends" style="endArrow=block;endSize=16;endFill=0;html=1;rounded=0;exitX=0.5;exitY=0;exitDx=0;exitDy=0;fontFamily=Verdana;fontSize=14;" parent="1" source="UVRq8ia7U5ipdbFmCf5v-49" target="UVRq8ia7U5ipdbFmCf5v-41" edge="1">
          <mxGeometry width="160" relative="1" as="geometry">
            <mxPoint x="-570" y="240" as="sourcePoint" />
            <mxPoint x="-410" y="240" as="targetPoint" />
          </mxGeometry>
        </mxCell>
        <mxCell id="UVRq8ia7U5ipdbFmCf5v-54" value="CatridgeRefill" style="swimlane;fontStyle=1;align=center;verticalAlign=top;childLayout=stackLayout;horizontal=1;startSize=26;horizontalStack=0;resizeParent=1;resizeParentMax=0;resizeLast=0;collapsible=1;marginBottom=0;fontFamily=Verdana;fontSize=14;" parent="1" vertex="1">
          <mxGeometry x="-830" y="480" width="160" height="86" as="geometry" />
        </mxCell>
        <mxCell id="UVRq8ia7U5ipdbFmCf5v-55" value="..." style="text;strokeColor=none;fillColor=none;align=left;verticalAlign=top;spacingLeft=4;spacingRight=4;overflow=hidden;rotatable=0;points=[[0,0.5],[1,0.5]];portConstraint=eastwest;fontFamily=Verdana;fontSize=14;" parent="UVRq8ia7U5ipdbFmCf5v-54" vertex="1">
          <mxGeometry y="26" width="160" height="26" as="geometry" />
        </mxCell>
        <mxCell id="UVRq8ia7U5ipdbFmCf5v-56" value="" style="line;strokeWidth=1;fillColor=none;align=left;verticalAlign=middle;spacingTop=-1;spacingLeft=3;spacingRight=3;rotatable=0;labelPosition=right;points=[];portConstraint=eastwest;strokeColor=inherit;fontFamily=Verdana;fontSize=14;" parent="UVRq8ia7U5ipdbFmCf5v-54" vertex="1">
          <mxGeometry y="52" width="160" height="8" as="geometry" />
        </mxCell>
        <mxCell id="UVRq8ia7U5ipdbFmCf5v-57" value="+ doRefill(): void" style="text;strokeColor=none;fillColor=none;align=left;verticalAlign=top;spacingLeft=4;spacingRight=4;overflow=hidden;rotatable=0;points=[[0,0.5],[1,0.5]];portConstraint=eastwest;fontFamily=Verdana;fontSize=14;" parent="UVRq8ia7U5ipdbFmCf5v-54" vertex="1">
          <mxGeometry y="60" width="160" height="26" as="geometry" />
        </mxCell>
        <mxCell id="UVRq8ia7U5ipdbFmCf5v-58" value="GellRefill" style="swimlane;fontStyle=1;align=center;verticalAlign=top;childLayout=stackLayout;horizontal=1;startSize=26;horizontalStack=0;resizeParent=1;resizeParentMax=0;resizeLast=0;collapsible=1;marginBottom=0;fontFamily=Verdana;fontSize=14;" parent="1" vertex="1">
          <mxGeometry x="-650" y="480" width="160" height="86" as="geometry" />
        </mxCell>
        <mxCell id="UVRq8ia7U5ipdbFmCf5v-59" value="..." style="text;strokeColor=none;fillColor=none;align=left;verticalAlign=top;spacingLeft=4;spacingRight=4;overflow=hidden;rotatable=0;points=[[0,0.5],[1,0.5]];portConstraint=eastwest;fontFamily=Verdana;fontSize=14;" parent="UVRq8ia7U5ipdbFmCf5v-58" vertex="1">
          <mxGeometry y="26" width="160" height="26" as="geometry" />
        </mxCell>
        <mxCell id="UVRq8ia7U5ipdbFmCf5v-60" value="" style="line;strokeWidth=1;fillColor=none;align=left;verticalAlign=middle;spacingTop=-1;spacingLeft=3;spacingRight=3;rotatable=0;labelPosition=right;points=[];portConstraint=eastwest;strokeColor=inherit;fontFamily=Verdana;fontSize=14;" parent="UVRq8ia7U5ipdbFmCf5v-58" vertex="1">
          <mxGeometry y="52" width="160" height="8" as="geometry" />
        </mxCell>
        <mxCell id="UVRq8ia7U5ipdbFmCf5v-61" value="+ doRefill(): void" style="text;strokeColor=none;fillColor=none;align=left;verticalAlign=top;spacingLeft=4;spacingRight=4;overflow=hidden;rotatable=0;points=[[0,0.5],[1,0.5]];portConstraint=eastwest;fontFamily=Verdana;fontSize=14;" parent="UVRq8ia7U5ipdbFmCf5v-58" vertex="1">
          <mxGeometry y="60" width="160" height="26" as="geometry" />
        </mxCell>
        <mxCell id="UVRq8ia7U5ipdbFmCf5v-62" value="IntegratedRefill" style="swimlane;fontStyle=1;align=center;verticalAlign=top;childLayout=stackLayout;horizontal=1;startSize=26;horizontalStack=0;resizeParent=1;resizeParentMax=0;resizeLast=0;collapsible=1;marginBottom=0;fontFamily=Verdana;fontSize=14;" parent="1" vertex="1">
          <mxGeometry x="-470" y="480" width="160" height="86" as="geometry" />
        </mxCell>
        <mxCell id="UVRq8ia7U5ipdbFmCf5v-63" value="..." style="text;strokeColor=none;fillColor=none;align=left;verticalAlign=top;spacingLeft=4;spacingRight=4;overflow=hidden;rotatable=0;points=[[0,0.5],[1,0.5]];portConstraint=eastwest;fontFamily=Verdana;fontSize=14;" parent="UVRq8ia7U5ipdbFmCf5v-62" vertex="1">
          <mxGeometry y="26" width="160" height="26" as="geometry" />
        </mxCell>
        <mxCell id="UVRq8ia7U5ipdbFmCf5v-64" value="" style="line;strokeWidth=1;fillColor=none;align=left;verticalAlign=middle;spacingTop=-1;spacingLeft=3;spacingRight=3;rotatable=0;labelPosition=right;points=[];portConstraint=eastwest;strokeColor=inherit;fontFamily=Verdana;fontSize=14;" parent="UVRq8ia7U5ipdbFmCf5v-62" vertex="1">
          <mxGeometry y="52" width="160" height="8" as="geometry" />
        </mxCell>
        <mxCell id="UVRq8ia7U5ipdbFmCf5v-65" value="+ doRefill(): void" style="text;strokeColor=none;fillColor=none;align=left;verticalAlign=top;spacingLeft=4;spacingRight=4;overflow=hidden;rotatable=0;points=[[0,0.5],[1,0.5]];portConstraint=eastwest;fontFamily=Verdana;fontSize=14;" parent="UVRq8ia7U5ipdbFmCf5v-62" vertex="1">
          <mxGeometry y="60" width="160" height="26" as="geometry" />
        </mxCell>
        <mxCell id="UVRq8ia7U5ipdbFmCf5v-66" value="Extends" style="endArrow=block;endSize=16;endFill=0;html=1;rounded=0;fontFamily=Verdana;fontSize=14;" parent="1" source="UVRq8ia7U5ipdbFmCf5v-54" target="UVRq8ia7U5ipdbFmCf5v-41" edge="1">
          <mxGeometry width="160" relative="1" as="geometry">
            <mxPoint x="-690" y="230" as="sourcePoint" />
            <mxPoint x="-565" y="134" as="targetPoint" />
          </mxGeometry>
        </mxCell>
        <mxCell id="UVRq8ia7U5ipdbFmCf5v-67" value="Extends" style="endArrow=block;endSize=16;endFill=0;html=1;rounded=0;fontFamily=Verdana;fontSize=14;" parent="1" source="UVRq8ia7U5ipdbFmCf5v-58" target="UVRq8ia7U5ipdbFmCf5v-41" edge="1">
          <mxGeometry width="160" relative="1" as="geometry">
            <mxPoint x="-505" y="230" as="sourcePoint" />
            <mxPoint x="-493" y="134" as="targetPoint" />
          </mxGeometry>
        </mxCell>
        <mxCell id="UVRq8ia7U5ipdbFmCf5v-68" value="Extends" style="endArrow=block;endSize=16;endFill=0;html=1;rounded=0;fontFamily=Verdana;fontSize=14;" parent="1" source="UVRq8ia7U5ipdbFmCf5v-62" target="UVRq8ia7U5ipdbFmCf5v-41" edge="1">
          <mxGeometry width="160" relative="1" as="geometry">
            <mxPoint x="-495" y="240" as="sourcePoint" />
            <mxPoint x="-483" y="144" as="targetPoint" />
          </mxGeometry>
        </mxCell>
        <mxCell id="Yz0xnHHeIeZ-wLIu7A6q-20" value="NoRefillException" style="swimlane;fontStyle=1;align=center;verticalAlign=top;childLayout=stackLayout;horizontal=1;startSize=26;horizontalStack=0;resizeParent=1;resizeParentMax=0;resizeLast=0;collapsible=1;marginBottom=0;fontFamily=Verdana;fontSize=14;" vertex="1" parent="1">
          <mxGeometry x="1230" y="199" width="170" height="86" as="geometry" />
        </mxCell>
        <mxCell id="Yz0xnHHeIeZ-wLIu7A6q-21" value="+ field: type" style="text;strokeColor=none;fillColor=none;align=left;verticalAlign=top;spacingLeft=4;spacingRight=4;overflow=hidden;rotatable=0;points=[[0,0.5],[1,0.5]];portConstraint=eastwest;fontFamily=Verdana;fontSize=14;" vertex="1" parent="Yz0xnHHeIeZ-wLIu7A6q-20">
          <mxGeometry y="26" width="170" height="26" as="geometry" />
        </mxCell>
        <mxCell id="Yz0xnHHeIeZ-wLIu7A6q-22" value="" style="line;strokeWidth=1;fillColor=none;align=left;verticalAlign=middle;spacingTop=-1;spacingLeft=3;spacingRight=3;rotatable=0;labelPosition=right;points=[];portConstraint=eastwest;strokeColor=inherit;fontFamily=Verdana;fontSize=14;" vertex="1" parent="Yz0xnHHeIeZ-wLIu7A6q-20">
          <mxGeometry y="52" width="170" height="8" as="geometry" />
        </mxCell>
        <mxCell id="Yz0xnHHeIeZ-wLIu7A6q-23" value="+ method(type): type" style="text;strokeColor=none;fillColor=none;align=left;verticalAlign=top;spacingLeft=4;spacingRight=4;overflow=hidden;rotatable=0;points=[[0,0.5],[1,0.5]];portConstraint=eastwest;fontFamily=Verdana;fontSize=14;" vertex="1" parent="Yz0xnHHeIeZ-wLIu7A6q-20">
          <mxGeometry y="60" width="170" height="26" as="geometry" />
        </mxCell>
        <mxCell id="Yz0xnHHeIeZ-wLIu7A6q-24" value="EmptyRefillException" style="swimlane;fontStyle=1;align=center;verticalAlign=top;childLayout=stackLayout;horizontal=1;startSize=26;horizontalStack=0;resizeParent=1;resizeParentMax=0;resizeLast=0;collapsible=1;marginBottom=0;fontFamily=Verdana;fontSize=14;" vertex="1" parent="1">
          <mxGeometry x="1010" y="199" width="180" height="86" as="geometry" />
        </mxCell>
        <mxCell id="Yz0xnHHeIeZ-wLIu7A6q-25" value="+ field: type" style="text;strokeColor=none;fillColor=none;align=left;verticalAlign=top;spacingLeft=4;spacingRight=4;overflow=hidden;rotatable=0;points=[[0,0.5],[1,0.5]];portConstraint=eastwest;fontFamily=Verdana;fontSize=14;" vertex="1" parent="Yz0xnHHeIeZ-wLIu7A6q-24">
          <mxGeometry y="26" width="180" height="26" as="geometry" />
        </mxCell>
        <mxCell id="Yz0xnHHeIeZ-wLIu7A6q-26" value="" style="line;strokeWidth=1;fillColor=none;align=left;verticalAlign=middle;spacingTop=-1;spacingLeft=3;spacingRight=3;rotatable=0;labelPosition=right;points=[];portConstraint=eastwest;strokeColor=inherit;fontFamily=Verdana;fontSize=14;" vertex="1" parent="Yz0xnHHeIeZ-wLIu7A6q-24">
          <mxGeometry y="52" width="180" height="8" as="geometry" />
        </mxCell>
        <mxCell id="Yz0xnHHeIeZ-wLIu7A6q-27" value="+ method(type): type" style="text;strokeColor=none;fillColor=none;align=left;verticalAlign=top;spacingLeft=4;spacingRight=4;overflow=hidden;rotatable=0;points=[[0,0.5],[1,0.5]];portConstraint=eastwest;fontFamily=Verdana;fontSize=14;" vertex="1" parent="Yz0xnHHeIeZ-wLIu7A6q-24">
          <mxGeometry y="60" width="180" height="26" as="geometry" />
        </mxCell>
        <mxCell id="Yz0xnHHeIeZ-wLIu7A6q-28" value="RuntimeException" style="swimlane;fontStyle=1;align=center;verticalAlign=top;childLayout=stackLayout;horizontal=1;startSize=26;horizontalStack=0;resizeParent=1;resizeParentMax=0;resizeLast=0;collapsible=1;marginBottom=0;fontFamily=Verdana;fontSize=14;" vertex="1" parent="1">
          <mxGeometry x="1085" y="40" width="160" height="34" as="geometry" />
        </mxCell>
        <mxCell id="Yz0xnHHeIeZ-wLIu7A6q-30" value="" style="line;strokeWidth=1;fillColor=none;align=left;verticalAlign=middle;spacingTop=-1;spacingLeft=3;spacingRight=3;rotatable=0;labelPosition=right;points=[];portConstraint=eastwest;strokeColor=inherit;fontFamily=Verdana;fontSize=14;" vertex="1" parent="Yz0xnHHeIeZ-wLIu7A6q-28">
          <mxGeometry y="26" width="160" height="8" as="geometry" />
        </mxCell>
        <mxCell id="Yz0xnHHeIeZ-wLIu7A6q-32" value="Extends" style="endArrow=block;endSize=16;endFill=0;html=1;rounded=0;fontFamily=Verdana;fontSize=14;" edge="1" parent="1" source="Yz0xnHHeIeZ-wLIu7A6q-24" target="Yz0xnHHeIeZ-wLIu7A6q-28">
          <mxGeometry width="160" relative="1" as="geometry">
            <mxPoint x="790" y="150" as="sourcePoint" />
            <mxPoint x="950" y="150" as="targetPoint" />
          </mxGeometry>
        </mxCell>
        <mxCell id="Yz0xnHHeIeZ-wLIu7A6q-33" value="Extends" style="endArrow=block;endSize=16;endFill=0;html=1;rounded=0;fontFamily=Verdana;fontSize=14;" edge="1" parent="1" source="Yz0xnHHeIeZ-wLIu7A6q-20" target="Yz0xnHHeIeZ-wLIu7A6q-28">
          <mxGeometry width="160" relative="1" as="geometry">
            <mxPoint x="1137" y="160" as="sourcePoint" />
            <mxPoint x="1168" y="84" as="targetPoint" />
          </mxGeometry>
        </mxCell>
      </root>
    </mxGraphModel>
  </diagram>
</mxfile>
